HIERARCHY
ROOT joint_Root
{
	OFFSET 0.0 0.0 0.0
	CHANNELS 6 Xposition Yposition Zposition Zrotation Xrotation Yrotation 
	JOINT Hips
	{
		OFFSET 4.5925 91.4895 -427.239
		CHANNELS 6 Xposition Yposition Zposition Zrotation Xrotation Yrotation 
		JOINT Spine
		{
			OFFSET 15.7357 0.0 0.0
			CHANNELS 6 Xposition Yposition Zposition Zrotation Xrotation Yrotation 
			JOINT Chest
			{
				OFFSET 8.98455 -0.406207 0.0
				CHANNELS 6 Xposition Yposition Zposition Zrotation Xrotation Yrotation 
				JOINT Neck
				{
					OFFSET 16.3773 0.0 0.0
					CHANNELS 6 Xposition Yposition Zposition Zrotation Xrotation Yrotation 
					JOINT Head
					{
						OFFSET 6.45672 0.0 0.0
						CHANNELS 6 Xposition Yposition Zposition Zrotation Xrotation Yrotation 
						End Site
						{
							OFFSET 0.0 0.0 0.0
						}
					}
				}
				JOINT Shoulder_L
				{
					OFFSET 12.9942 -0.242716 4.98039
					CHANNELS 6 Xposition Yposition Zposition Zrotation Xrotation Yrotation 
					JOINT UpperArm_L
					{
						OFFSET 5.34809 0.0 0.0
						CHANNELS 6 Xposition Yposition Zposition Zrotation Xrotation Yrotation 
						JOINT LowerArm_L
						{
							OFFSET 24.3286 1.87007e-05 0.0
							CHANNELS 6 Xposition Yposition Zposition Zrotation Xrotation Yrotation 
							JOINT Hand_L
							{
								OFFSET 22.2916 0.0 0.0
								CHANNELS 6 Xposition Yposition Zposition Zrotation Xrotation Yrotation 
								End Site
								{
									OFFSET 0.0 0.0 0.0
								}
							}
						}
					}
				}
				JOINT Shoulder_R
				{
					OFFSET 12.9945 -0.242716 -4.98039
					CHANNELS 6 Xposition Yposition Zposition Zrotation Xrotation Yrotation 
					JOINT UpperArm_R
					{
						OFFSET -5.34813 0.0 0.0
						CHANNELS 6 Xposition Yposition Zposition Zrotation Xrotation Yrotation 
						JOINT LowerArm_R
						{
							OFFSET -24.3289 0.000322201 0.0
							CHANNELS 6 Xposition Yposition Zposition Zrotation Xrotation Yrotation 
							JOINT Hand_R
							{
								OFFSET -22.2915 -0.000108084 0.0
								CHANNELS 6 Xposition Yposition Zposition Zrotation Xrotation Yrotation 
								End Site
								{
									OFFSET 0.0 0.0 0.0
								}
							}
						}
					}
				}
			}
		}
		JOINT UpperLeg_L
		{
			OFFSET -2.19248 -6.46944 0.0
			CHANNELS 6 Xposition Yposition Zposition Zrotation Xrotation Yrotation 
			JOINT LowerLeg_L
			{
				OFFSET 39.0811 0.0 -1.23785e-05
				CHANNELS 6 Xposition Yposition Zposition Zrotation Xrotation Yrotation 
				JOINT Foot_L
				{
					OFFSET 40.9854 0.0 -1.26872e-05
					CHANNELS 6 Xposition Yposition Zposition Zrotation Xrotation Yrotation 
					JOINT Toes_L
					{
						OFFSET 11.7543 0.0 0.0
						CHANNELS 6 Xposition Yposition Zposition Zrotation Xrotation Yrotation 
						End Site
						{
							OFFSET 0.0 0.0 0.0
						}
					}
				}
			}
		}
		JOINT UpperLeg_R
		{
			OFFSET -2.19251 6.46944 0.0
			CHANNELS 6 Xposition Yposition Zposition Zrotation Xrotation Yrotation 
			JOINT LowerLeg_R
			{
				OFFSET -39.0811 -0.00228153 -0.0401928
				CHANNELS 6 Xposition Yposition Zposition Zrotation Xrotation Yrotation 
				JOINT Foot_R
				{
					OFFSET -40.9854 0.0 0.0
					CHANNELS 6 Xposition Yposition Zposition Zrotation Xrotation Yrotation 
					JOINT Toes_R
					{
						OFFSET -11.7543 0.0 0.0
						CHANNELS 6 Xposition Yposition Zposition Zrotation Xrotation Yrotation 
						End Site
						{
							OFFSET 0.0 0.0 0.0
						}
					}
				}
			}
		}
	}
}
MOTION
Frames:	4
Frame Time:	0.0333333
0.000000 0.000000 0.000000 0.000000 0.000000 -0.000000 -2.634730 91.516200 -0.491199 88.237800 3.290590 3.816580 15.735700 0.000005 -0.000001 90.944600 85.938200 -94.061900 8.984550 -0.406207 -0.000000 0.373168 0.334780 -6.231370 16.377300 -0.000001 -0.000001 4.388500 -4.477800 5.668950 6.456720 -0.000001 -0.000000 -0.252646 -1.165010 -1.983140 12.994200 -0.242716 4.980390 -91.892400 5.185050 -69.917800 5.348090 -0.000007 -0.000001 -61.386300 26.165400 -10.099700 24.328600 0.000019 0.000005 6.497950 19.682400 -18.684200 22.291600 -0.000001 0.000005 14.204800 5.156140 3.796310 12.994500 -0.242716 -4.980390 93.060700 -7.903340 -68.751200 -5.348130 -0.000001 -0.000004 -36.692000 -63.636700 -74.986600 -24.328900 0.000322 -0.000009 -10.037000 -5.736810 -60.541400 -22.291500 -0.000108 -0.000004 19.388000 5.530020 -7.796170 -2.192480 -6.469440 -0.000000 -173.347000 -9.948110 -6.266950 39.081100 -0.000007 -0.000012 -0.177708 0.338033 27.731600 40.985400 -0.000006 -0.000013 -0.604086 8.946460 -67.692400 11.754300 -0.000000 0.000003 -0.000168 -0.001595 -16.638000 -2.192510 6.469440 -0.000001 178.622000 25.855200 176.744000 -39.081100 -0.002282 -0.040193 -0.059466 0.130570 25.677800 -40.985400 0.000008 0.000006 5.524470 11.693300 -69.159300 -11.754300 -0.000006 -0.000006 -0.003250 -0.043402 -18.338300
0.000000 0.000000 0.000000 0.000000 0.000000 -0.000000 -2.426870 91.504900 -0.431972 88.324700 2.487750 3.987830 15.735700 0.000005 -0.000001 91.805600 85.859000 -94.821300 8.984550 -0.406207 -0.000000 0.530936 0.451077 -6.029080 16.377300 -0.000001 -0.000001 4.181640 -4.116790 5.291700 6.456720 -0.000001 -0.000000 -0.243551 -1.011220 -1.870980 12.994200 -0.242716 4.980390 -91.960300 5.346940 -69.831800 5.348090 -0.000007 -0.000001 -61.245200 26.952000 -10.111500 24.328600 0.000019 0.000005 6.621650 19.536200 -19.144200 22.291600 -0.000001 0.000005 13.921900 5.159560 3.713380 12.994500 -0.242716 -4.980390 92.490700 -6.829420 -69.908900 -5.348130 -0.000001 -0.000004 -32.920600 -60.716100 -67.232800 -24.328900 0.000322 -0.000009 -10.467100 -4.103320 -68.829500 -22.291500 -0.000108 -0.000004 20.376100 5.522720 -7.480080 -2.192480 -6.469440 -0.000000 -173.473000 -10.622100 -5.868540 39.081100 -0.000007 -0.000012 -0.178128 0.338793 27.734400 40.985400 -0.000006 -0.000013 -0.486167 8.802430 -67.850700 11.754300 -0.000000 0.000003 -0.000164 -0.001566 -16.637000 -2.192510 6.469440 -0.000001 178.242000 25.547700 176.880000 -39.081100 -0.002282 -0.040193 -0.068747 0.148962 25.814600 -40.985400 0.000008 0.000006 5.350520 12.270200 -69.161200 -11.754300 -0.000006 -0.000006 -0.003262 -0.043529 -18.343500
0.000000 0.000000 0.000000 0.000000 0.000000 -0.000000 -2.217470 91.484800 -0.352939 88.385500 1.717500 4.156490 15.735700 0.000005 -0.000001 92.513000 85.779900 -95.402900 8.984550 -0.406207 -0.000000 0.686424 0.548304 -5.778730 16.377300 -0.000001 -0.000001 3.941630 -3.689640 4.757430 6.456720 -0.000001 -0.000000 -0.195020 -0.948342 -1.660690 12.994200 -0.242716 4.980390 -92.026600 5.497030 -69.726600 5.348090 -0.000007 -0.000001 -61.169900 27.767800 -10.252800 24.328600 0.000019 0.000005 6.589460 19.275200 -19.286900 22.291600 -0.000001 0.000005 13.631400 5.166980 3.533610 12.994500 -0.242716 -4.980390 91.865200 -5.450930 -71.079000 -5.348130 -0.000001 -0.000004 -29.338700 -56.576600 -59.142600 -24.328900 0.000322 -0.000009 -9.879420 -2.204880 -77.548500 -22.291500 -0.000108 -0.000004 20.913100 5.514780 -7.142820 -2.192480 -6.469440 -0.000000 -173.583000 -11.224800 -5.509390 39.081100 -0.000007 -0.000012 -0.176010 0.333832 27.800200 40.985400 -0.000006 -0.000013 -0.373543 8.606720 -68.045600 11.754300 -0.000000 0.000003 -0.000185 -0.001734 -16.643100 -2.192510 6.469440 -0.000001 177.874000 25.257300 177.021000 -39.081100 -0.002282 -0.040193 -0.082313 0.175962 25.947600 -40.985400 0.000008 0.000006 5.035080 12.866800 -69.133100 -11.754300 -0.000006 -0.000006 -0.003106 -0.041793 -18.272800
0.000000 0.000000 0.000000 0.000000 0.000000 -0.000000 -2.026780 91.457000 -0.241162 88.480200 1.057150 4.428030 15.735700 0.000005 -0.000001 92.698300 85.687200 -95.438000 8.984550 -0.406207 -0.000000 0.869668 0.570650 -5.479270 16.377300 -0.000001 -0.000001 3.735710 -3.250750 4.057130 6.456720 -0.000001 -0.000000 -0.204457 -0.931014 -1.459920 12.994200 -0.242716 4.980390 -92.123600 5.726630 -69.614100 5.348090 -0.000007 -0.000001 -61.141400 28.495800 -10.348500 24.328600 0.000019 0.000005 6.532680 19.122900 -19.267300 22.291600 -0.000001 0.000005 13.466100 5.173790 3.368060 12.994500 -0.242716 -4.980390 91.178300 -3.669450 -72.187800 -5.348130 -0.000001 -0.000004 -26.381300 -50.939500 -51.588400 -24.328900 0.000322 -0.000009 -9.078710 -0.670877 -85.809700 -22.291500 -0.000108 -0.000004 20.975000 5.505540 -6.757030 -2.192480 -6.469440 -0.000000 -173.682000 -11.736100 -5.036350 39.081100 -0.000007 -0.000012 -0.177529 0.335881 27.858800 40.985400 -0.000006 -0.000013 -0.268480 8.467330 -68.253000 11.754300 -0.000000 0.000003 -0.000182 -0.001712 -16.642300 -2.192510 6.469440 -0.000001 177.429000 25.028100 177.291000 -39.081100 -0.002282 -0.040193 -0.095966 0.202438 26.123400 -40.985400 0.000008 0.000006 4.789080 13.411700 -69.178400 -11.754300 -0.000006 -0.000006 -0.002955 -0.040091 -18.203500
